<?xml version="1.0" encoding="UTF-8"?>
<svg version="1.1" xmlns="http://www.w3.org/2000/svg" width="850" height="850">
<path d="M0 0 C181.5 0 363 0 550 0 C550 82.5 550 165 550 250 C583 250 616 250 650 250 C650 283 650 316 650 350 C641.75 350 633.5 350 625 350 C625 358.25 625 366.5 625 375 C616.75 375 608.5 375 600 375 C600 383.25 600 391.5 600 400 C591.75 400 583.5 400 575 400 C575 408.25 575 416.5 575 425 C566.75 425 558.5 425 550 425 C550 433.25 550 441.5 550 450 C541.75 450 533.5 450 525 450 C525 458.25 525 466.5 525 475 C516.75 475 508.5 475 500 475 C500 483.25 500 491.5 500 500 C491.75 500 483.5 500 475 500 C475 508.25 475 516.5 475 525 C491.5 525 508 525 525 525 C525 533.25 525 541.5 525 550 C541.5 550 558 550 575 550 C575 558.25 575 566.5 575 575 C583.25 575 591.5 575 600 575 C600 583.25 600 591.5 600 600 C608.25 600 616.5 600 625 600 C625 608.25 625 616.5 625 625 C633.25 625 641.5 625 650 625 C650 633.25 650 641.5 650 650 C658.25 650 666.5 650 675 650 C675 699.5 675 749 675 800 C411 800 147 800 -125 800 C-125 750.5 -125 701 -125 650 C-116.75 650 -108.5 650 -100 650 C-100 641.75 -100 633.5 -100 625 C-91.75 625 -83.5 625 -75 625 C-75 616.75 -75 608.5 -75 600 C-66.75 600 -58.5 600 -50 600 C-50 591.75 -50 583.5 -50 575 C-41.75 575 -33.5 575 -25 575 C-25 566.75 -25 558.5 -25 550 C-8.5 550 8 550 25 550 C25 541.75 25 533.5 25 525 C41.5 525 58 525 75 525 C75 516.75 75 508.5 75 500 C66.75 500 58.5 500 50 500 C50 491.75 50 483.5 50 475 C41.75 475 33.5 475 25 475 C25 466.75 25 458.5 25 450 C16.75 450 8.5 450 0 450 C0 441.75 0 433.5 0 425 C-8.25 425 -16.5 425 -25 425 C-25 416.75 -25 408.5 -25 400 C-33.25 400 -41.5 400 -50 400 C-50 391.75 -50 383.5 -50 375 C-58.25 375 -66.5 375 -75 375 C-75 366.75 -75 358.5 -75 350 C-83.25 350 -91.5 350 -100 350 C-100 317 -100 284 -100 250 C-67 250 -34 250 0 250 C0 167.5 0 85 0 0 Z " fill="#000000" transform="translate(150,25)"/>
<path d="M0 0 C181.5 0 363 0 550 0 C550 82.5 550 165 550 250 C583 250 616 250 650 250 C650 283 650 316 650 350 C641.75 350 633.5 350 625 350 C625 358.25 625 366.5 625 375 C616.75 375 608.5 375 600 375 C600 383.25 600 391.5 600 400 C591.75 400 583.5 400 575 400 C575 408.25 575 416.5 575 425 C566.75 425 558.5 425 550 425 C550 433.25 550 441.5 550 450 C541.75 450 533.5 450 525 450 C525 458.25 525 466.5 525 475 C516.75 475 508.5 475 500 475 C500 483.25 500 491.5 500 500 C491.75 500 483.5 500 475 500 C475 508.25 475 516.5 475 525 C491.5 525 508 525 525 525 C525 533.25 525 541.5 525 550 C541.5 550 558 550 575 550 C575 558.25 575 566.5 575 575 C583.25 575 591.5 575 600 575 C600 583.25 600 591.5 600 600 C608.25 600 616.5 600 625 600 C625 608.25 625 616.5 625 625 C633.25 625 641.5 625 650 625 C650 633.25 650 641.5 650 650 C658.25 650 666.5 650 675 650 C675 699.5 675 749 675 800 C411 800 147 800 -125 800 C-125 750.5 -125 701 -125 650 C-116.75 650 -108.5 650 -100 650 C-100 641.75 -100 633.5 -100 625 C-91.75 625 -83.5 625 -75 625 C-75 616.75 -75 608.5 -75 600 C-66.75 600 -58.5 600 -50 600 C-50 591.75 -50 583.5 -50 575 C-41.75 575 -33.5 575 -25 575 C-25 566.75 -25 558.5 -25 550 C-8.5 550 8 550 25 550 C25 541.75 25 533.5 25 525 C41.5 525 58 525 75 525 C75 516.75 75 508.5 75 500 C66.75 500 58.5 500 50 500 C50 491.75 50 483.5 50 475 C41.75 475 33.5 475 25 475 C25 466.75 25 458.5 25 450 C16.75 450 8.5 450 0 450 C0 441.75 0 433.5 0 425 C-8.25 425 -16.5 425 -25 425 C-25 416.75 -25 408.5 -25 400 C-33.25 400 -41.5 400 -50 400 C-50 391.75 -50 383.5 -50 375 C-58.25 375 -66.5 375 -75 375 C-75 366.75 -75 358.5 -75 350 C-83.25 350 -91.5 350 -100 350 C-100 317 -100 284 -100 250 C-67 250 -34 250 0 250 C0 167.5 0 85 0 0 Z M-75 275 C-75 291.5 -75 308 -75 325 C-66.75 325 -58.5 325 -50 325 C-50 333.25 -50 341.5 -50 350 C-41.75 350 -33.5 350 -25 350 C-25 358.25 -25 366.5 -25 375 C-16.75 375 -8.5 375 0 375 C0 383.25 0 391.5 0 400 C8.25 400 16.5 400 25 400 C25 408.25 25 416.5 25 425 C33.25 425 41.5 425 50 425 C50 433.25 50 441.5 50 450 C58.25 450 66.5 450 75 450 C75 458.25 75 466.5 75 475 C83.25 475 91.5 475 100 475 C100 483.25 100 491.5 100 500 C108.25 500 116.5 500 125 500 C125 508.25 125 516.5 125 525 C116.75 525 108.5 525 100 525 C100 533.25 100 541.5 100 550 C83.5 550 67 550 50 550 C50 558.25 50 566.5 50 575 C33.5 575 17 575 0 575 C0 583.25 0 591.5 0 600 C-8.25 600 -16.5 600 -25 600 C-25 608.25 -25 616.5 -25 625 C-33.25 625 -41.5 625 -50 625 C-50 633.25 -50 641.5 -50 650 C-58.25 650 -66.5 650 -75 650 C-75 658.25 -75 666.5 -75 675 C-83.25 675 -91.5 675 -100 675 C-100 708 -100 741 -100 775 C147.5 775 395 775 650 775 C650 742 650 709 650 675 C641.75 675 633.5 675 625 675 C625 666.75 625 658.5 625 650 C616.75 650 608.5 650 600 650 C600 641.75 600 633.5 600 625 C591.75 625 583.5 625 575 625 C575 616.75 575 608.5 575 600 C566.75 600 558.5 600 550 600 C550 591.75 550 583.5 550 575 C533.5 575 517 575 500 575 C500 566.75 500 558.5 500 550 C483.5 550 467 550 450 550 C450 541.75 450 533.5 450 525 C441.75 525 433.5 525 425 525 C425 516.75 425 508.5 425 500 C433.25 500 441.5 500 450 500 C450 491.75 450 483.5 450 475 C458.25 475 466.5 475 475 475 C475 466.75 475 458.5 475 450 C483.25 450 491.5 450 500 450 C500 441.75 500 433.5 500 425 C508.25 425 516.5 425 525 425 C525 416.75 525 408.5 525 400 C533.25 400 541.5 400 550 400 C550 391.75 550 383.5 550 375 C558.25 375 566.5 375 575 375 C575 366.75 575 358.5 575 350 C583.25 350 591.5 350 600 350 C600 341.75 600 333.5 600 325 C608.25 325 616.5 325 625 325 C625 308.5 625 292 625 275 C394 275 163 275 -75 275 Z " fill="#FFFFFF" transform="translate(150,25)"/>
<path d="M0 0 C165 0 330 0 500 0 C500 57.75 500 115.5 500 175 C335 175 170 175 0 175 C0 117.25 0 59.5 0 0 Z " fill="#000000" transform="translate(175,50)"/>
<path d="M0 0 C148.5 0 297 0 450 0 C450 8.25 450 16.5 450 25 C441.75 25 433.5 25 425 25 C425 33.25 425 41.5 425 50 C416.75 50 408.5 50 400 50 C400 58.25 400 66.5 400 75 C391.75 75 383.5 75 375 75 C375 83.25 375 91.5 375 100 C366.75 100 358.5 100 350 100 C350 108.25 350 116.5 350 125 C325.25 125 300.5 125 275 125 C275 116.75 275 108.5 275 100 C266.75 100 258.5 100 250 100 C250 91.75 250 83.5 250 75 C233.5 75 217 75 200 75 C200 83.25 200 91.5 200 100 C191.75 100 183.5 100 175 100 C175 108.25 175 116.5 175 125 C150.25 125 125.5 125 100 125 C100 116.75 100 108.5 100 100 C91.75 100 83.5 100 75 100 C75 91.75 75 83.5 75 75 C66.75 75 58.5 75 50 75 C50 66.75 50 58.5 50 50 C41.75 50 33.5 50 25 50 C25 41.75 25 33.5 25 25 C16.75 25 8.5 25 0 25 C0 16.75 0 8.5 0 0 Z " fill="#FFFFFF" transform="translate(200,325)"/>
</svg>
