<?xml version="1.0" encoding="UTF-8"?>
<svg version="1.1" xmlns="http://www.w3.org/2000/svg" width="800" height="800">
<path d="M0 0 C165 0 330 0 500 0 C500 82.5 500 165 500 250 C533 250 566 250 600 250 C600 266.5 600 283 600 300 C591.75 300 583.5 300 575 300 C575 308.25 575 316.5 575 325 C566.75 325 558.5 325 550 325 C550 333.25 550 341.5 550 350 C541.75 350 533.5 350 525 350 C525 358.25 525 366.5 525 375 C516.75 375 508.5 375 500 375 C500 383.25 500 391.5 500 400 C491.75 400 483.5 400 475 400 C475 408.25 475 416.5 475 425 C466.75 425 458.5 425 450 425 C450 433.25 450 441.5 450 450 C441.75 450 433.5 450 425 450 C425 458.25 425 466.5 425 475 C416.75 475 408.5 475 400 475 C400 483.25 400 491.5 400 500 C408.25 500 416.5 500 425 500 C425 508.25 425 516.5 425 525 C433.25 525 441.5 525 450 525 C450 533.25 450 541.5 450 550 C458.25 550 466.5 550 475 550 C475 558.25 475 566.5 475 575 C483.25 575 491.5 575 500 575 C500 583.25 500 591.5 500 600 C508.25 600 516.5 600 525 600 C525 608.25 525 616.5 525 625 C533.25 625 541.5 625 550 625 C550 633.25 550 641.5 550 650 C558.25 650 566.5 650 575 650 C575 658.25 575 666.5 575 675 C583.25 675 591.5 675 600 675 C600 683.25 600 691.5 600 700 C608.25 700 616.5 700 625 700 C625 716.5 625 733 625 750 C377.5 750 130 750 -125 750 C-125 733.5 -125 717 -125 700 C-116.75 700 -108.5 700 -100 700 C-100 691.75 -100 683.5 -100 675 C-91.75 675 -83.5 675 -75 675 C-75 666.75 -75 658.5 -75 650 C-66.75 650 -58.5 650 -50 650 C-50 641.75 -50 633.5 -50 625 C-41.75 625 -33.5 625 -25 625 C-25 616.75 -25 608.5 -25 600 C-16.75 600 -8.5 600 0 600 C0 591.75 0 583.5 0 575 C8.25 575 16.5 575 25 575 C25 566.75 25 558.5 25 550 C33.25 550 41.5 550 50 550 C50 541.75 50 533.5 50 525 C58.25 525 66.5 525 75 525 C75 516.75 75 508.5 75 500 C83.25 500 91.5 500 100 500 C100 491.75 100 483.5 100 475 C91.75 475 83.5 475 75 475 C75 466.75 75 458.5 75 450 C66.75 450 58.5 450 50 450 C50 441.75 50 433.5 50 425 C41.75 425 33.5 425 25 425 C25 416.75 25 408.5 25 400 C16.75 400 8.5 400 0 400 C0 391.75 0 383.5 0 375 C-8.25 375 -16.5 375 -25 375 C-25 366.75 -25 358.5 -25 350 C-33.25 350 -41.5 350 -50 350 C-50 341.75 -50 333.5 -50 325 C-58.25 325 -66.5 325 -75 325 C-75 316.75 -75 308.5 -75 300 C-83.25 300 -91.5 300 -100 300 C-100 283.5 -100 267 -100 250 C-67 250 -34 250 0 250 C0 167.5 0 85 0 0 Z " fill="#848484" transform="translate(150,25)"/>
<path d="M0 0 C132 0 264 0 400 0 C400 8.25 400 16.5 400 25 C391.75 25 383.5 25 375 25 C375 33.25 375 41.5 375 50 C366.75 50 358.5 50 350 50 C350 58.25 350 66.5 350 75 C358.25 75 366.5 75 375 75 C375 83.25 375 91.5 375 100 C383.25 100 391.5 100 400 100 C400 108.25 400 116.5 400 125 C408.25 125 416.5 125 425 125 C425 133.25 425 141.5 425 150 C433.25 150 441.5 150 450 150 C450 158.25 450 166.5 450 175 C458.25 175 466.5 175 475 175 C475 183.25 475 191.5 475 200 C483.25 200 491.5 200 500 200 C500 208.25 500 216.5 500 225 C508.25 225 516.5 225 525 225 C525 233.25 525 241.5 525 250 C533.25 250 541.5 250 550 250 C550 258.25 550 266.5 550 275 C558.25 275 566.5 275 575 275 C575 291.5 575 308 575 325 C327.5 325 80 325 -175 325 C-175 308.5 -175 292 -175 275 C-166.75 275 -158.5 275 -150 275 C-150 266.75 -150 258.5 -150 250 C-141.75 250 -133.5 250 -125 250 C-125 241.75 -125 233.5 -125 225 C-116.75 225 -108.5 225 -100 225 C-100 216.75 -100 208.5 -100 200 C-91.75 200 -83.5 200 -75 200 C-75 191.75 -75 183.5 -75 175 C-66.75 175 -58.5 175 -50 175 C-50 166.75 -50 158.5 -50 150 C-41.75 150 -33.5 150 -25 150 C-25 141.75 -25 133.5 -25 125 C-16.75 125 -8.5 125 0 125 C0 116.75 0 108.5 0 100 C8.25 100 16.5 100 25 100 C25 91.75 25 83.5 25 75 C33.25 75 41.5 75 50 75 C50 66.75 50 58.5 50 50 C41.75 50 33.5 50 25 50 C25 41.75 25 33.5 25 25 C16.75 25 8.5 25 0 25 C0 16.75 0 8.5 0 0 Z " fill="#FFFFFF" transform="translate(200,450)"/>
<path d="M0 0 C165 0 330 0 500 0 C500 57.75 500 115.5 500 175 C335 175 170 175 0 175 C0 117.25 0 59.5 0 0 Z " fill="#FFFFFF" transform="translate(150,25)"/>
<path d="M0 0 C148.5 0 297 0 450 0 C450 8.25 450 16.5 450 25 C441.75 25 433.5 25 425 25 C425 33.25 425 41.5 425 50 C416.75 50 408.5 50 400 50 C400 58.25 400 66.5 400 75 C391.75 75 383.5 75 375 75 C375 83.25 375 91.5 375 100 C366.75 100 358.5 100 350 100 C350 108.25 350 116.5 350 125 C325.25 125 300.5 125 275 125 C275 116.75 275 108.5 275 100 C266.75 100 258.5 100 250 100 C250 91.75 250 83.5 250 75 C233.5 75 217 75 200 75 C200 83.25 200 91.5 200 100 C191.75 100 183.5 100 175 100 C175 108.25 175 116.5 175 125 C150.25 125 125.5 125 100 125 C100 116.75 100 108.5 100 100 C91.75 100 83.5 100 75 100 C75 91.75 75 83.5 75 75 C66.75 75 58.5 75 50 75 C50 66.75 50 58.5 50 50 C41.75 50 33.5 50 25 50 C25 41.75 25 33.5 25 25 C16.75 25 8.5 25 0 25 C0 16.75 0 8.5 0 0 Z " fill="#000000" transform="translate(175,300)"/>
<path d="M0 0 C165 0 330 0 500 0 C500 24.75 500 49.5 500 75 C335 75 170 75 0 75 C0 50.25 0 25.5 0 0 Z " fill="#000000" transform="translate(150,200)"/>
<path d="M0 0 C231 0 462 0 700 0 C700 8.25 700 16.5 700 25 C469 25 238 25 0 25 C0 16.75 0 8.5 0 0 Z " fill="#FFFFFF" transform="translate(50,275)"/>
</svg>
