<svg role="img" viewBox="0 0 256 256" xmlns="http://www.w3.org/2000/svg" id="Springboot--Streamline-Simple-Icons" height="256" width="256">
  <desc>
    Springboot Streamline Icon: https://streamlinehq.com
  </desc>
  <title>Spring Boot</title>
  <path d="m252.72533333333334 114.1952 -50.45333333333333 -87.30026666666666c-4.366933333333333 -7.579733333333333 -15.1104 -13.8048 -23.895466666666668 -13.8048H77.57333333333332c-8.735999999999999 0 -19.528533333333332 6.225066666666667 -23.895466666666668 13.8048L3.2746666666666666 114.1952c-4.367999999999999 7.579733333333333 -4.367999999999999 19.978666666666665 0 27.559466666666665l50.40213333333333 87.34933333333333c4.366933333333333 7.5808 15.1104 13.805866666666667 23.895466666666668 13.805866666666667h100.85333333333332c8.735999999999999 0 19.477333333333334 -6.225066666666667 23.895466666666668 -13.8048l50.40213333333333 -87.34933333333333c4.367999999999999 -7.5808 4.367999999999999 -19.9808 0 -27.560533333333332zM117.08053333333334 61.38346666666666c0 -5.722666666666666 4.668799999999999 -10.391466666666666 10.391466666666666 -10.391466666666666s10.391466666666666 4.668799999999999 10.391466666666666 10.391466666666666v62.09813333333333c0 5.723733333333333 -4.668799999999999 10.391466666666666 -10.391466666666666 10.391466666666666s-10.391466666666666 -4.667733333333333 -10.391466666666666 -10.391466666666666zm10.391466666666666 132.58026666666666c-38.855466666666665 0 -70.48213333333334 -31.626666666666665 -70.48213333333334 -70.48213333333334 0.050133333333333335 -22.289066666666663 10.591999999999999 -43.2224 28.464 -56.576a9.234133333333332 9.234133333333332 0 0 1 12.951466666666665 1.9071999999999998 9.234133333333332 9.234133333333332 0 0 1 -1.9071999999999998 12.952533333333331c-23.042133333333332 17.117866666666664 -27.861333333333334 49.69813333333333 -10.743466666666666 72.74026666666666 17.11893333333333 23.0432 49.6992 27.861333333333334 72.74133333333333 10.743466666666666 13.203199999999999 -9.788799999999998 20.98453333333333 -25.301333333333332 20.98453333333333 -41.767466666666664a52.236799999999995 52.236799999999995 0 0 0 -21.185066666666664 -41.86666666666666c-4.117333333333333 -3.012266666666666 -4.970666666666666 -8.836266666666667 -1.9584000000000001 -12.952533333333331 3.012266666666666 -4.117333333333333 8.8352 -4.970666666666666 12.952533333333331 -1.9573333333333331 18.02133333333333 13.3024 28.614399999999996 34.3872 28.66453333333333 56.77653333333333 0 38.9056 -31.626666666666665 70.48213333333334 -70.48213333333334 70.48213333333334z" fill="#000000" stroke-width="10.6667"></path>
</svg>